<svg xmlns="http://www.w3.org/2000/svg" width="50" height="50" viewBox="0 0 50 50">
  <metadata><?xpacket begin="﻿" id="W5M0MpCehiHzreSzNTczkc9d"?>
<x:xmpmeta xmlns:x="adobe:ns:meta/" x:xmptk="Adobe XMP Core 5.6-c138 79.159824, 2016/09/14-01:09:01        ">
   <rdf:RDF xmlns:rdf="http://www.w3.org/1999/02/22-rdf-syntax-ns#">
      <rdf:Description rdf:about=""/>
   </rdf:RDF>
</x:xmpmeta>
                                                                                                    
                                                                                                    
                                                                                                    
                                                                                                    
                                                                                                    
                                                                                                    
                                                                                                    
                                                                                                    
                                                                                                    
                                                                                                    
                                                                                                    
                                                                                                    
                                                                                                    
                                                                                                    
                                                                                                    
                                                                                                    
                                                                                                    
                                                                                                    
                                                                                                    
                                                                                                    
                           
<?xpacket end="w"?></metadata>
<defs>
    <style>
      .cls-1 {
        fill: #fff;
        fill-rule: evenodd;
      }
    </style>
  </defs>
  <path id="twitter" class="cls-1" d="M1146,1468.01a24.99,24.99,0,1,0,24.99,24.99A25.018,25.018,0,0,0,1146,1468.01Zm11.15,19.27c0.01,0.25.02,0.5,0.02,0.75,0,7.6-5.79,16.36-16.37,16.36a16.285,16.285,0,0,1-8.82-2.58,12.441,12.441,0,0,0,1.37.08,11.566,11.566,0,0,0,7.15-2.46,5.765,5.765,0,0,1-5.38-4,5.494,5.494,0,0,0,1.08.1,5.81,5.81,0,0,0,1.52-.2,5.752,5.752,0,0,1-4.61-5.64v-0.07a5.71,5.71,0,0,0,2.6.72,5.755,5.755,0,0,1-1.78-7.68,16.346,16.346,0,0,0,11.86,6.01,5.658,5.658,0,0,1-.15-1.31,5.758,5.758,0,0,1,9.95-3.94,11.276,11.276,0,0,0,3.65-1.39,5.762,5.762,0,0,1-2.53,3.18,11.427,11.427,0,0,0,3.31-.91A11.622,11.622,0,0,1,1157.15,1487.28Z" transform="translate(-1121 -1468)"/>
</svg>
