<?xml version="1.0" encoding="utf-8"?>
<!-- Generator: Adobe Illustrator 21.1.0, SVG Export Plug-In . SVG Version: 6.00 Build 0)  -->
<svg version="1.1" id="Layer_1" xmlns="http://www.w3.org/2000/svg" xmlns:xlink="http://www.w3.org/1999/xlink" x="0px" y="0px"
	 viewBox="0 0 50 50" style="enable-background:new 0 0 50 50;" xml:space="preserve">
<style type="text/css">
	.st0{fill:#FFFFFF;}
	.st1{fill:#D84E42;}
</style>
<g>
	<path class="st0" d="M32.3,29.8h1.2c0.3,0,0.6-0.3,0.6-0.6V25h4.2c0.3,0,0.6-0.3,0.6-0.6v-1.2c0-0.3-0.3-0.6-0.6-0.6h-4.2v-4.2
		c0-0.3-0.3-0.6-0.6-0.6h-1.2c-0.3,0-0.6,0.3-0.6,0.6v4.2h-4.2c-0.3,0-0.6,0.3-0.6,0.6v1.2c0,0.3,0.3,0.6,0.6,0.6h4.2v4.2
		C31.7,29.5,32,29.8,32.3,29.8z"/>
	<path class="st0" d="M11.3,30.7c-0.2,0.6-0.4,1.2-0.4,1.9c0,0.7,0.2,1.3,0.5,1.8c1,1.5,2.5,2.5,4.3,2.8c1.1,0.3,2.3,0.4,3.4,0.4
		c1,0,2-0.1,3-0.4c3-0.9,4.9-3,4.9-5.6c0.2-2.2-0.9-4.2-2.8-5.3c-0.7-0.4-1.3-1.1-1.7-1.8c0-0.5,0-0.8,1.2-1.7
		c1.4-1,2.2-2.6,2.3-4.3c0.1-1.3-0.4-2.6-1.2-3.7h0.6c0.1,0,0.2,0,0.3-0.1l1.7-1.2c0.2-0.2,0.3-0.5,0.2-0.7
		c-0.1-0.2-0.3-0.4-0.6-0.4h-7.6c-0.8,0-1.6,0.1-2.4,0.4c-2.7,0.9-4.6,3.2-4.6,5.6v0.1c0.1,3.3,2.8,6,6.1,5.9
		c-0.1,0.3-0.1,0.5-0.1,0.8c0,0.5,0.1,1,0.4,1.5h-0.1C15.4,26.7,12.4,28.3,11.3,30.7z M16.3,18.3c-0.2-1,0-2.1,0.7-3
		c0.4-0.4,0.9-0.7,1.5-0.7h0.1c1.6,0.1,3.2,1.9,3.5,4.1c0.2,1.1,0,2.2-0.7,3.1c-0.4,0.5-0.9,0.7-1.5,0.7
		C18.2,22.5,16.6,20.6,16.3,18.3z M19.5,28.6L19.5,28.6c0.6,0,1.2,0,1.7,0.2c0.2,0.1,0.3,0.2,0.5,0.3c1.1,0.8,1.9,1.4,2,2.3
		c0.1,0.2,0.1,0.4,0.1,0.6c0,2.2-1.6,3.3-4.8,3.3c-2.4,0-4.3-1.5-4.3-3.4C14.7,30.1,17,28.6,19.5,28.6z"/>
</g>
<path id="google" class="st1" d="M21.7,29.1c-0.2-0.1-0.3-0.2-0.5-0.3c-0.5-0.2-1.1-0.2-1.6-0.2h-0.1c-2.5,0-4.8,1.5-4.8,3.3
	c0,1.9,1.9,3.4,4.3,3.4c3.2,0,4.8-1.1,4.8-3.3c0-0.2,0-0.4-0.1-0.6C23.6,30.5,22.8,29.9,21.7,29.1z M19.9,22.5L19.9,22.5
	c0.6,0,1.1-0.2,1.5-0.7c0.7-0.9,0.9-2,0.7-3.1c-0.3-2.2-1.9-4-3.5-4.1h-0.1c-0.6,0-1.1,0.3-1.5,0.7c-0.7,0.9-0.9,2-0.7,3
	C16.6,20.6,18.2,22.5,19.9,22.5L19.9,22.5L19.9,22.5z M25,0C11.2,0,0,11.2,0,25s11.2,25,25,25s25-11.2,25-25l0,0
	C50,11.2,38.8,0,25,0z M22.1,37.2c-1,0.3-2,0.4-3,0.4c-1.1,0-2.3-0.1-3.4-0.4c-1.8-0.3-3.3-1.3-4.3-2.8c-0.3-0.5-0.5-1.1-0.5-1.8
	s0.2-1.3,0.4-1.9c1.1-2.4,4.1-4,7.4-4h0.1c-0.3-0.5-0.4-1-0.4-1.5c0-0.3,0-0.5,0.1-0.8c-3.3,0.1-6-2.6-6.1-5.9v-0.1
	c0-2.4,1.9-4.7,4.6-5.6c0.8-0.3,1.6-0.4,2.4-0.4H27c0.3,0,0.5,0.2,0.6,0.4s0,0.5-0.2,0.7l-1.7,1.2c-0.1,0.1-0.2,0.1-0.3,0.1h-0.6
	c0.8,1.1,1.3,2.4,1.2,3.7c-0.1,1.7-0.9,3.3-2.3,4.3c-1.2,0.9-1.2,1.2-1.2,1.7c0.4,0.7,1,1.4,1.7,1.8c1.9,1.1,3,3.1,2.8,5.3
	C27,34.2,25.1,36.3,22.1,37.2z M38.9,24.4c0,0.3-0.3,0.6-0.6,0.6h-4.2v4.2c0,0.3-0.3,0.6-0.6,0.6h-1.2c-0.3,0-0.6-0.3-0.6-0.6V25
	h-4.2c-0.3,0-0.6-0.3-0.6-0.6l0,0v-1.2c0-0.3,0.3-0.6,0.6-0.6h4.2v-4.2c0-0.3,0.3-0.6,0.6-0.6l0,0h1.2c0.3,0,0.6,0.3,0.6,0.6v4.2
	h4.2c0.3,0,0.6,0.3,0.6,0.6V24.4z"/>
<path id="google_1_" class="st1" d="M21.7,29.1c-0.2-0.1-0.3-0.2-0.5-0.3c-0.5-0.2-1.1-0.2-1.6-0.2h-0.1c-2.5,0-4.8,1.5-4.8,3.3
	c0,1.9,1.9,3.4,4.3,3.4c3.2,0,4.8-1.1,4.8-3.3c0-0.2,0-0.4-0.1-0.6C23.6,30.5,22.8,29.9,21.7,29.1z M19.9,22.5L19.9,22.5
	c0.6,0,1.1-0.2,1.5-0.7c0.7-0.9,0.9-2,0.7-3.1c-0.3-2.2-1.9-4-3.5-4.1h-0.1c-0.6,0-1.1,0.3-1.5,0.7c-0.7,0.9-0.9,2-0.7,3
	C16.6,20.6,18.2,22.5,19.9,22.5L19.9,22.5L19.9,22.5z M25,0C11.2,0,0,11.2,0,25s11.2,25,25,25s25-11.2,25-25l0,0
	C50,11.2,38.8,0,25,0z M22.1,37.2c-1,0.3-2,0.4-3,0.4c-1.1,0-2.3-0.1-3.4-0.4c-1.8-0.3-3.3-1.3-4.3-2.8c-0.3-0.5-0.5-1.1-0.5-1.8
	s0.2-1.3,0.4-1.9c1.1-2.4,4.1-4,7.4-4h0.1c-0.3-0.5-0.4-1-0.4-1.5c0-0.3,0-0.5,0.1-0.8c-3.3,0.1-6-2.6-6.1-5.9v-0.1
	c0-2.4,1.9-4.7,4.6-5.6c0.8-0.3,1.6-0.4,2.4-0.4H27c0.3,0,0.5,0.2,0.6,0.4s0,0.5-0.2,0.7l-1.7,1.2c-0.1,0.1-0.2,0.1-0.3,0.1h-0.6
	c0.8,1.1,1.3,2.4,1.2,3.7c-0.1,1.7-0.9,3.3-2.3,4.3c-1.2,0.9-1.2,1.2-1.2,1.7c0.4,0.7,1,1.4,1.7,1.8c1.9,1.1,3,3.1,2.8,5.3
	C27,34.2,25.1,36.3,22.1,37.2z M38.9,24.4c0,0.3-0.3,0.6-0.6,0.6h-4.2v4.2c0,0.3-0.3,0.6-0.6,0.6h-1.2c-0.3,0-0.6-0.3-0.6-0.6V25
	h-4.2c-0.3,0-0.6-0.3-0.6-0.6l0,0v-1.2c0-0.3,0.3-0.6,0.6-0.6h4.2v-4.2c0-0.3,0.3-0.6,0.6-0.6l0,0h1.2c0.3,0,0.6,0.3,0.6,0.6v4.2
	h4.2c0.3,0,0.6,0.3,0.6,0.6V24.4z"/>
</svg>
