<svg xmlns="http://www.w3.org/2000/svg" width="50" height="50" viewBox="0 0 50 50">
  <metadata><?xpacket begin="﻿" id="W5M0MpCehiHzreSzNTczkc9d"?>
<x:xmpmeta xmlns:x="adobe:ns:meta/" x:xmptk="Adobe XMP Core 5.6-c138 79.159824, 2016/09/14-01:09:01        ">
   <rdf:RDF xmlns:rdf="http://www.w3.org/1999/02/22-rdf-syntax-ns#">
      <rdf:Description rdf:about=""/>
   </rdf:RDF>
</x:xmpmeta>
                                                                                                    
                                                                                                    
                                                                                                    
                                                                                                    
                                                                                                    
                                                                                                    
                                                                                                    
                                                                                                    
                                                                                                    
                                                                                                    
                                                                                                    
                                                                                                    
                                                                                                    
                                                                                                    
                                                                                                    
                                                                                                    
                                                                                                    
                                                                                                    
                                                                                                    
                                                                                                    
                           
<?xpacket end="w"?></metadata>
<defs>
    <style>
      .cls-1 {
        fill: #fff;
        fill-rule: evenodd;
      }
    </style>
  </defs>
  <path id="google" class="cls-1" d="M1071.65,1497.14c-0.16-.11-0.33-0.22-0.5-0.34a5.346,5.346,0,0,0-1.6-.24h-0.06c-2.53,0-4.75,1.53-4.75,3.27,0,1.91,1.9,3.39,4.33,3.39,3.2,0,4.82-1.1,4.82-3.27a2.875,2.875,0,0,0-.08-0.64C1073.6,1498.47,1072.82,1497.94,1071.65,1497.14Zm-1.79-6.63h0a1.958,1.958,0,0,0,1.51-.69,3.953,3.953,0,0,0,.73-3.1c-0.28-2.2-1.86-4.03-3.5-4.08h-0.07a1.947,1.947,0,0,0-1.49.69,3.838,3.838,0,0,0-.71,3.03c0.29,2.2,1.9,4.1,3.5,4.15h0.03Zm5.14-22.5a24.99,24.99,0,1,0,24.99,24.99A25.018,25.018,0,0,0,1075,1468.01Zm-2.88,37.16a11.108,11.108,0,0,1-3.04.41,13.972,13.972,0,0,1-3.41-.41,6.622,6.622,0,0,1-4.32-2.79,3.523,3.523,0,0,1-.46-1.75,4.529,4.529,0,0,1,.44-1.89c1.14-2.42,4.13-4.04,7.44-4.04h0.1a2.976,2.976,0,0,1-.4-1.49,3.092,3.092,0,0,1,.1-0.78,5.966,5.966,0,0,1-6.07-5.98c0-2.37,1.89-4.68,4.6-5.61a7.469,7.469,0,0,1,2.45-.42h7.43a0.579,0.579,0,0,1,.55.4,0.565,0.565,0,0,1-.21.65l-1.66,1.21a0.6,0.6,0,0,1-.34.11h-0.6a5.763,5.763,0,0,1,1.22,3.71,5.58,5.58,0,0,1-2.32,4.34c-1.16.9-1.21,1.15-1.21,1.66a5.018,5.018,0,0,0,1.71,1.84,5.726,5.726,0,0,1,2.85,5.3C1076.97,1502.15,1075.06,1504.31,1072.12,1505.17Zm16.78-12.75a0.589,0.589,0,0,1-.58.59h-4.23v4.22a0.589,0.589,0,0,1-.58.59h-1.2a0.591,0.591,0,0,1-.59-0.59v-4.22h-4.22a0.583,0.583,0,0,1-.58-0.59v-1.2a0.589,0.589,0,0,1,.58-0.59h4.22v-4.22a0.583,0.583,0,0,1,.59-0.58h1.2a0.58,0.58,0,0,1,.58.58v4.22h4.23a0.589,0.589,0,0,1,.58.59v1.2Z" transform="translate(-1050 -1468)"/>
</svg>
