<?xml version="1.0" encoding="utf-8"?>
<!-- Generator: Adobe Illustrator 21.1.0, SVG Export Plug-In . SVG Version: 6.00 Build 0)  -->
<svg version="1.1" id="Layer_1" xmlns="http://www.w3.org/2000/svg" xmlns:xlink="http://www.w3.org/1999/xlink" x="0px" y="0px"
	 viewBox="0 0 50 50" style="enable-background:new 0 0 50 50;" xml:space="preserve">
<style type="text/css">
	.st0{fill:#FFFFFF;}
	.st1{fill:#3B5998;}
</style>
<g>
	<path class="st0" d="M27.1,40.4V25.9h4.1l0.6-5.1h-4.6v-3c0,0,0-0.1,0-0.2c0-0.7,0.6-1.2,1.3-1.2h3.2v-5h-4.5c-5,0-6.1,3.7-6.1,6.1
		v3.3h-2.9v5.1h2.9v14.5H27.1z"/>
	<path id="facebook" class="st1" d="M25,0C11.2,0,0,11.2,0,25s11.2,25,25,25s25-11.2,25-25l0,0C50,11.2,38.8,0,25,0z M31.2,25.9
		h-4.1v14.5h-6V25.9h-2.9v-5.1h2.9v-3.3c0-2.4,1.1-6.1,6.1-6.1h4.5v5h-3.2c-0.7,0-1.3,0.5-1.3,1.2c0,0.1,0,0.2,0,0.2v3h4.6
		L31.2,25.9z"/>
</g>
</svg>
