<svg xmlns="http://www.w3.org/2000/svg" viewBox="4486.928 282.484 17.072 13.516"><defs><style>.a{fill:#ff5a00;}</style></defs><g transform="translate(4486.928 282.484)"><path class="a" d="M3.406,157.168H5.732v-.408a5.694,5.694,0,0,1-1.27-3.938,7.377,7.377,0,0,1,.174-1.622H4.417L3.6,153.415H2.368l2.146-4.527-1.842-.914L0,153.72v1.495H3.406Z" transform="translate(0 -143.824)"/><path class="a" d="M128.108,148.442c0,3.2,1.661,4.749,4.25,4.749a6.13,6.13,0,0,0,3.434-.941v-3.974h-2.4v2.838a2.887,2.887,0,0,1-.969.166c-1.329,0-1.869-1.163-1.869-2.977,0-1.759.678-2.658,1.758-2.658a2.207,2.207,0,0,1,1.786,1.108l1.731-1.274a3.915,3.915,0,0,0-3.489-1.828C130.351,143.651,128.108,144.855,128.108,148.442Z" transform="translate(-122.976 -139.674)"/><path class="a" d="M261.65,113.218a.469.469,0,0,0,.024.554.486.486,0,0,0,.108.1.473.473,0,0,0,.654-.134,2.8,2.8,0,0,0,.161-.276,2.842,2.842,0,0,0-3.485-3.967.471.471,0,0,0-.286.6.479.479,0,0,0,.6.286,1.9,1.9,0,0,1,2.33,2.652C261.724,113.1,261.688,113.16,261.65,113.218Z" transform="translate(-248.431 -106.729)"/><path class="a" d="M258.509,77.78a4.161,4.161,0,0,0-4.384-1.419.475.475,0,0,0-.325.582.49.49,0,0,0,.581.326,3.226,3.226,0,0,1,3.864,4.3,3.272,3.272,0,0,1-.166.353.471.471,0,0,0,.045.519.483.483,0,0,0,.144.121.464.464,0,0,0,.354.039.47.47,0,0,0,.285-.228,4.179,4.179,0,0,0-.4-4.595Z" transform="translate(-243.616 -74.932)"/><path class="a" d="M251.152,52.626a.47.47,0,0,0,.359.038.461.461,0,0,0,.28-.225c.033-.059.064-.119.1-.183a5.445,5.445,0,0,0-6.338-7.671.47.47,0,0,0-.243.745.479.479,0,0,0,.5.164,4.5,4.5,0,0,1,5.237,6.346c-.024.048-.048.1-.077.147a.473.473,0,0,0,.188.638Z" transform="translate(-235.381 -44.385)"/></g></svg>