<svg xmlns="http://www.w3.org/2000/svg" viewBox="4428.766 282.111 16.641 13.889"><defs><style>.a{fill:#ff5a00;}</style></defs><g transform="translate(4428.766 282.111)"><path class="a" d="M15.737,50.616v-.024H.9v.024A.982.982,0,0,0,0,51.5v9.754a.957.957,0,0,0,.13.488.91.91,0,0,0,.847.5H6.334v1.351H5.316a.448.448,0,0,0,0,.9h6a.448.448,0,1,0,0-.9H10.3V62.234h5.357a.907.907,0,0,0,.847-.5.983.983,0,0,0,.138-.488V51.5A1,1,0,0,0,15.737,50.616Zm0,.96v9.672c0,.057-.024.082-.081.082H.977c-.057,0-.081-.024-.081-.082V51.5H15.737v.082Z" transform="translate(0 -50.592)"/></g></svg>