<svg xmlns="http://www.w3.org/2000/svg" viewBox="4460.017 282.111 12.515 13.889"><defs><style>.a{fill:#ff5a00;}</style></defs><g transform="translate(4460.017 282.111)"><g transform="translate(0)"><path class="a" d="M.831,7.134l.2-.518A.785.785,0,0,0,.831,7.134Z" transform="translate(-0.83 -1.142)"/><path class="a" d="M15.671,6.561l.235.563A.785.785,0,0,0,15.671,6.561Z" transform="translate(-3.391 -1.132)"/><path class="a" d="M12.556,5.2a.79.79,0,0,1,.6.274l-.026-.065c.009.007.017.012.026.02l-.189-.453L11.367.793A.792.792,0,0,0,10.575,0H3.645a.793.793,0,0,0-.793.793L1.258,4.976l-.189.453a.268.268,0,0,1,.026-.02l-.026.065A.79.79,0,0,1,1.664,5.2ZM5.454.692,5.905.444a.286.286,0,0,1,.309.049l.865.96h0c.063.071.041.168-.07.218h0L6.5,1.858c-.207.108-.088.322.059.532l.74.818c.356.318.554.468.77.4l.44-.261a.286.286,0,0,1,.31.049l.865.96h0c.064.071.041.169-.07.218h0L9.1,4.743c-.335.117-1.671.156-3.141-1.52C4.537,1.608,5.187.855,5.454.692Z" transform="translate(-0.871)"/><path class="a" d="M12.554,7.218H1.623A.793.793,0,0,0,.83,8.01v2.313a.793.793,0,0,0,.793.792H6.507v1.947H5.8a1.034,1.034,0,0,0-.87.475H.957V14.66H4.934a1.036,1.036,0,0,0,.87.475H8.334a1.037,1.037,0,0,0,.87-.475h3.977V13.536H9.2a1.036,1.036,0,0,0-.87-.475h-.7V11.114h4.922a.792.792,0,0,0,.792-.792V8.01A.791.791,0,0,0,12.554,7.218Zm-.7,2.246H9.678V8.87h2.179Z" transform="translate(-0.83 -1.246)"/></g></g></svg>