<svg xmlns="http://www.w3.org/2000/svg" viewBox="4368 284.425 15.047 11.574"><defs><style>.a{fill:#ff5a00;}</style></defs><g transform="translate(4368 284.425)"><path class="a" d="M14.873,6.067A10.272,10.272,0,0,0,7.523,3,10.173,10.173,0,0,0,.174,6.067a.559.559,0,0,0,0,.81l.81.81a.559.559,0,0,0,.81,0,8.1,8.1,0,0,1,11.459,0,.559.559,0,0,0,.81,0l.81-.81a.525.525,0,0,0,.174-.405A.451.451,0,0,0,14.873,6.067Z" transform="translate(0 -3)"/><path class="a" d="M9.925,11a5.633,5.633,0,0,0-4.051,1.678.559.559,0,0,0,0,.81l.81.81a.559.559,0,0,0,.81,0,3.411,3.411,0,0,1,2.431-.984,3.674,3.674,0,0,1,2.431.984.559.559,0,0,0,.81,0l.81-.81a.559.559,0,0,0,0-.81A5.633,5.633,0,0,0,9.925,11Z" transform="translate(-2.401 -6.37)"/><circle class="a" cx="1.157" cy="1.157" r="1.157" transform="translate(6.366 9.26)"/></g></svg>