<svg xmlns="http://www.w3.org/2000/svg" viewBox="4397.515 282.226 16.5 13.774"><defs><style>.a{fill:#ff5a00;}</style></defs><g transform="translate(4397.515 282.226)"><path class="a" d="M109.395,58.909a.552.552,0,1,0,.78.78,1.755,1.755,0,0,1,2.479,0,.552.552,0,0,0,.78-.781A2.86,2.86,0,0,0,109.395,58.909Z" transform="translate(-103.164 -56.211)"/><path class="a" d="M86.449,26.7a3.621,3.621,0,0,1,5.115,0,.552.552,0,0,0,.78-.781,4.726,4.726,0,0,0-6.676,0,.552.552,0,0,0,.78.781Z" transform="translate(-80.756 -24.539)"/><path class="a" d="M14.789,61H13.315V56.04a.552.552,0,0,0-1.1,0V61H8.8V59.436a.552.552,0,1,0-1.1,0V61H4.289V56.04a.552.552,0,1,0-1.1,0V61H1.711A1.713,1.713,0,0,0,0,62.715v3.116a1.713,1.713,0,0,0,1.711,1.711h.481v-.8a.552.552,0,0,1,1.1,0v.8h.761v-.8a.552.552,0,0,1,1.1,0v.8h.761v-.8a.552.552,0,0,1,1.1,0v.8H14.79A1.713,1.713,0,0,0,16.5,65.832V62.715A1.713,1.713,0,0,0,14.789,61Zm-4.338,3.659a.552.552,0,1,1,.162-.39A.557.557,0,0,1,10.452,64.663Zm1.811,0a.552.552,0,1,1,.162-.39A.556.556,0,0,1,12.263,64.663Zm1.811,0a.552.552,0,1,1,.162-.39A.555.555,0,0,1,14.074,64.663Z" transform="translate(0 -53.769)"/></g></svg>